# AST/ASF file generated using VICON BodyLanguage
# -----------------------------------------------
:version 1.10
:name VICON
:units
  mass 1.0
  length 0.45
  angle deg
:documentation
   .ast/.asf automatically generated from VICON data using
   VICON BodyBuilder and BodyLanguage model FoxedUp or BRILLIANT.MOD
:root
   order TX TY TZ RX RY RZ
   axis XYZ
   position 0 0 0  
   orientation 0 0 0 
:bonedata
  begin
     id 1 
     name lhipjoint
     direction 0.621036 -0.695554 0.361275 
     length 2.46325 
     axis 0 0 0  XYZ
  end
  begin
     id 2 
     name lfemur
     direction 0.34202 -0.939693 0  
     length 6.54784  
     axis 0 0 20  XYZ
    dof rx ry rz
    limits (-160.0 20.0)
           (-70.0 70.0)
           (-60.0 70.0)
  end
  begin
     id 3 
     name ltibia
     direction 0.34202 -0.939693 0   
     length 7.84737   
     axis 0 0 20   XYZ
    dof rx
    limits (-10.0 170.0)
  end
  begin
     id 4 
     name lfoot
     direction 0.0790693 -0.217241 0.97291   
     length 2.59747   
     axis -90 7.62852e-016 20   XYZ
    dof rx rz
    limits (-45.0 90.0)
           (-70.0 20.0)
  end
  begin
     id 5 
     name ltoes
     direction 1.53572e-011 -4.21898e-011 1   
     length 1.29919   
     axis -90 7.62852e-016 20   XYZ
    dof rx
    limits (-90.0 20.0)
  end
  begin
     id 6 
     name rhipjoint
     direction -0.602353 -0.708375 0.367935   
     length 2.41867  
     axis 0 0 0  XYZ 
  end
  begin
     id 7 
     name rfemur
     direction -0.34202 -0.939693 0   
     length 6.92065   
     axis 0 0 -20   XYZ
    dof rx ry rz
    limits (-160.0 20.0)
           (-70.0 70.0)
           (-70.0 60.0)
  end
  begin
     id 8 
     name rtibia
     direction -0.34202 -0.939693 0   
     length 7.88883   
     axis 0 0 -20   XYZ
    dof rx
    limits (-10.0 170.0)
 end
 begin
     id 9 
     name rfoot
     direction -0.0768692 -0.211196 0.974416   
     length 2.43714  
     axis -90 -7.62852e-016 -20   XYZ
    dof rx rz
    limits (-45.0 90.0)
           (-20.0 70.0)
  end
  begin
     id 10 
     name rtoes
     direction -1.53575e-011 -4.21933e-011 1   
     length 1.22113   
     axis -90 -7.62852e-016 -20   XYZ
    dof rx
    limits (-90.0 20.0)
  end
  begin
     id 11 
     name lowerback
     direction 0.0197937 0.98943 -0.143655   
     length 2.16931   
     axis 0 0 0   XYZ
    dof rx ry rz
    limits (-20.0 45.0)
           (-30.0 30.0)
           (-30.0 30.0)
  end
  begin
     id 12 
     name upperback
     direction -0.00183968 0.999975 0.00684288   
     length 2.17221   
     axis 0 0 0   XYZ
    dof rx ry rz
    limits (-20.0 45.0)
           (-30.0 30.0)
           (-30.0 30.0)
  end
  begin
     id 13 
     name thorax
     direction -0.00950244 0.997208 0.0740685   
     length 2.22549   
     axis 0 0 0   XYZ
    dof rx ry rz
    limits (-20.0 45.0)
           (-30.0 30.0)
           (-30.0 30.0)
  end
  begin
     id 14 
     name lowerneck
     direction 0.0218238 0.996215 0.0841425   
     length 1.77269   
     axis 0 0 0   XYZ
    dof rx ry rz
    limits (-20.0 45.0)
           (-30.0 30.0)
           (-30.0 30.0)
  end
  begin
     id 15 
     name upperneck
     direction -0.00430652 0.994214 -0.107332   
     length 1.76534   
     axis 0 0 0   XYZ
    dof rx ry rz
    limits (-20.0 45.0)
           (-30.0 30.0)
           (-30.0 30.0)
  end
  begin
     id 16
     name head
     direction -0.00328946 0.998959 -0.0454998  
     length 1.82634  
     axis 0 0 0   XYZ
    dof rx ry rz
    limits (-20.0 45.0)
           (-30.0 30.0)
           (-30.0 30.0)
  end
  begin
     id 17 
     name lclavicle
     direction 0.970962 0.239191 0.00450212  
     length 3.84872  
     axis 0 0 0   XYZ
    dof ry rz
    limits (-20.0 10.0)
           (0.0 20.0)
  end
  begin
     id 18 
     name lhumerus
     direction 1 -4.48966e-011 5.74696e-028   
     length 5.22771   
     axis 180 -30 -90   XYZ
    dof rx ry rz
    limits (-60.0 90.0)
           (-90.0 90.0)
           (-90.0 90.0)
  end
  begin
     id 19
     name lradius
     direction 1 -4.4896e-011 4.25109e-027   
     length 3.45251   
     axis 180 -30 -90   XYZ
    dof rx
    limits (-10.0 170.0)
  end
  begin
     id 20
     name lwrist
     direction 1 -4.48971e-011 1.15382e-027   
     length 1.72626   
     axis -5.52449e-016 90 90   XYZ
    dof ry
    limits (-180.0 0.0)
 end
  begin
     id 21 
     name lhand
     direction 1 -4.49034e-011 2.30765e-027   
     length 0.552119   
     axis -1.47248e-015 90 90   XYZ
    dof rx rz
    limits (-90.0 90.0)
           (-45.0 45.0)
  end
  begin
     id 22 
     name lfingers
     direction 1 -4.48951e-011 4.61529e-027   
     length 0.445133   
     axis -2.94495e-015 90 90   XYZ
    dof rx
    limits (0.0 90.0)
  end
  begin
     id 23
     name lthumb
     direction 0.707107 -6.34991e-011 0.707107   
     length 0.639124   
     axis -90 45 2.85299e-015   XYZ
    dof rx rz
    limits (-45.0 45.0)
           (-45.0 45.0)
  end
  begin
     id 24 
     name rclavicle
     direction -0.97424 0.222511 -0.0366699   
     length 3.73439  
     axis 0 0 0   XYZ 
    dof ry rz
    limits (-10.0 20.0)
           (-20.0 0.0)
  end
  begin
     id 25 
     name rhumerus
     direction -1 -4.48956e-011 -4.97258e-028  
     length 5.2398   
     axis 180 30 90   XYZ
    dof rx ry rz
    limits (-90.0 60.0)
           (-90.0 90.0)
           (-90.0 90.0)
  end
  begin
     id 26 
     name rradius
     direction -1 -4.4897e-011 -1.72611e-027   
     length 3.48042   
     axis 180 30 90   XYZ
    dof rx
    limits (-10.0 170.0)
  end
  begin
     id 27 
     name rwrist
     direction -1 -4.48976e-011 1.15382e-027   
     length 1.74021   
     axis -5.52449e-016 -90 -90   XYZ
    dof ry
    limits (-180.0 0.0)
  end
  begin
     id 28
     name rhand
     direction -1 -4.48963e-011 2.30765e-027   
     length 0.618713   
     axis -1.47248e-015 -90 -90   XYZ
    dof rx rz
    limits (-90.0 90.0)
           (-45.0 45.0)
  end
  begin
     id 29
     name rfingers
     direction -1 -4.4888e-011 4.61529e-027   
     length 0.498823   
     axis -2.94495e-015 -90 -90   XYZ
    dof rx
    limits (0.0 90.0)
  end
  begin
     id 30
     name rthumb
     direction -0.707107 -6.34968e-011 0.707107   
     length 0.716213   
     axis -90 -45 -2.85299e-015   XYZ
    dof rx rz
    limits (-45.0 45.0)
           (-45.0 45.0)
  end
:hierarchy
  begin
    root lhipjoint rhipjoint lowerback
    lhipjoint lfemur
    lfemur ltibia
    ltibia lfoot
    lfoot ltoes
    rhipjoint rfemur
    rfemur rtibia
    rtibia rfoot
    rfoot rtoes
    lowerback upperback
    upperback thorax
    thorax lowerneck lclavicle rclavicle
    lowerneck upperneck
    upperneck head
    lclavicle lhumerus
    lhumerus lradius
    lradius lwrist
    lwrist lhand lthumb
    lhand lfingers
    rclavicle rhumerus
    rhumerus rradius
    rradius rwrist
    rwrist rhand rthumb
    rhand rfingers
  end

#!OML:ASF G:\JayActor3\Patient Classification 1\Patient 1\Session 5\male.ASF
:FULLY-SPECIFIED
:DEGREES
62
root 5.25001 16.9451 -6.41077 145.703 -86.6536 211.409
lowerback 0.694579 -0.563621 2.28349
upperback 3.00169 -0.819496 0.318164
thorax 2.66517 -0.375151 -0.966357
lowerneck -2.97719 -1.0353 1.70579
upperneck -6.55695 -1.40487 2.90392
head -1.51759 -0.841483 0.622803
rclavicle 3.36459e-015 5.69642e-015
rhumerus -29.0003 -13.5208 -83.8773
rradius 23.6989
rwrist 15.1687
rhand -17.0427 -5.17987
rfingers 7.12502
rthumb 9.19418 -34.9594
lclavicle 3.36459e-015 5.69642e-015
lhumerus -28.235 4.1902 87.0288
lradius 22.2887
lwrist 6.79702
lhand -19.2675 21.1935
lfingers 7.12502
lthumb 7.04689 51.0562
rfemur -3.83363 5.93142 15.5256
rtibia 27.5469
rfoot -22.7557 -15.0972
rtoes 5.07023
lfemur 6.64932 3.78907 -14.0067
ltibia 9.35549
lfoot -14.9948 22.4159
ltoes 1.33218
63
root 5.24348 16.9448 -6.41123 145.831 -86.6313 211.282
lowerback 0.674505 -0.556417 2.29609
upperback 3.00135 -0.810727 0.32656
thorax 2.6764 -0.370442 -0.964891
lowerneck -2.97428 -1.04489 1.6832
upperneck -6.50764 -1.41596 2.93878
head -1.50201 -0.845787 0.636985
rclavicle 1.40232e-014 1.36664e-016
rhumerus -29.1682 -13.1953 -84.0325
rradius 23.882
rwrist 14.8063
rhand -17.3477 -5.23479
rfingers 7.12502
rthumb 8.89986 -35.0271
lclavicle 1.40232e-014 1.36664e-016
lhumerus -28.4641 3.79336 87.3187
lradius 22.5326
lwrist 6.85472
lhand -19.785 21.2872
lfingers 7.12502
lthumb 6.54737 51.166
rfemur -3.80494 5.94214 15.5342
rtibia 27.5333
rfoot -22.7725 -15.0766
rtoes 5.0951
lfemur 6.72169 3.8095 -14.0017
ltibia 9.28689
lfoot -15.0022 22.4151
ltoes 1.38339
64
root 5.23713 16.9445 -6.41158 145.949 -86.6123 211.164
lowerback 0.653947 -0.549338 2.30753
upperback 3.0008 -0.802101 0.334212
thorax 2.68768 -0.365817 -0.963532
lowerneck -2.97074 -1.05461 1.6612
upperneck -6.45509 -1.42727 2.9723
head -1.48551 -0.850105 0.650621
rclavicle -1.16677e-014 1.79527e-015
rhumerus -29.3267 -12.8757 -84.1763
rradius 24.0504
rwrist 14.4528
rhand -17.6382 -5.28912
rfingers 7.12502
rthumb 8.61951 -35.0932
lclavicle -1.16677e-014 1.79527e-015
lhumerus -28.6748 3.41291 87.5916
lradius 22.7575
lwrist 6.89537
lhand -20.2654 21.378
lfingers 7.12502
lthumb 6.08363 51.2707
rfemur -3.77639 5.95123 15.5408
rtibia 27.5205
rfoot -22.7896 -15.0575
rtoes 5.11935
lfemur 6.79114 3.82689 -13.9985
ltibia 9.22132
lfoot -15.0098 22.4146
ltoes 1.42963
65
root 5.23096 16.9441 -6.41182 146.048 -86.5964 211.063
lowerback 0.6334 -0.542576 2.31818
upperback 3.00025 -0.793879 0.341302
thorax 2.69894 -0.361402 -0.962318
lowerneck -2.96686 -1.06431 1.63986
upperneck -6.39963 -1.43866 3.00424
head -1.46817 -0.85437 0.663624
rclavicle -8.43495e-015 -1.95057e-015
rhumerus -29.4748 -12.5644 -84.3085
rradius 24.2017
rwrist 14.1114
rhand -17.9133 -5.34357
rfingers 7.12502
rthumb 8.35397 -35.1584
lclavicle -8.43495e-015 -1.95057e-015
lhumerus -28.8668 3.049 87.8468
lradius 22.962
lwrist 6.92257
lhand -20.7068 21.4612
lfingers 7.12502
lthumb 5.65744 51.3657
rfemur -3.74739 5.95864 15.5462
rtibia 27.5084
rfoot -22.8071 -15.04
rtoes 5.14225
lfemur 6.85799 3.84106 -13.9965
ltibia 9.15908
lfoot -15.0163 22.4145
ltoes 1.47233
66
root 5.22499 16.9438 -6.412 146.123 -86.5829 210.986
lowerback 0.612332 -0.535874 2.32849
upperback 2.99979 -0.785745 0.348018
thorax 2.71059 -0.357028 -0.961296
lowerneck -2.96321 -1.07393 1.61914
upperneck -6.34123 -1.45006 3.03501
head -1.44988 -0.858556 0.676126
rclavicle -1.37925e-014 -4.20864e-016
rhumerus -29.6116 -12.2635 -84.429
rradius 24.3341
rwrist 13.7833
rhand -18.1741 -5.395
rfingers 7.12502
rthumb 8.10232 -35.2197
lclavicle -1.37925e-014 -4.20864e-016
lhumerus -29.039 2.70326 88.0832
lradius 23.1445
lwrist 6.93638
lhand -21.1037 21.5406
lfingers 7.12502
lthumb 5.27418 51.455
rfemur -3.71859 5.96545 15.5516
rtibia 27.4972
rfoot -22.8253 -15.0247
rtoes 5.16373
lfemur 6.92218 3.8525 -13.9946
ltibia 9.09954
lfoot -15.0229 22.4146
ltoes 1.51282
67
root 5.21922 16.9434 -6.41215 146.176 -86.5716 210.932
lowerback 0.59161 -0.529254 2.33842
upperback 2.99925 -0.777699 0.354323
thorax 2.72195 -0.352702 -0.960471
lowerneck -2.9598 -1.08355 1.59894
upperneck -6.27986 -1.46155 3.06474
head -1.43063 -0.8627 0.68818
rclavicle -1.03003e-015 7.24011e-015
rhumerus -29.7372 -11.9754 -84.5374
rradius 24.4465
rwrist 13.4706
rhand -18.4176 -5.44468
rfingers 7.12502
rthumb 7.86726 -35.2783
lclavicle -1.03003e-015 7.24011e-015
lhumerus -29.1924 2.37367 88.3011
lradius 23.3058
lwrist 6.94212
lhand -21.4543 21.6179
lfingers 7.12502
lthumb 4.93572 51.5404
rfemur -3.68976 5.97193 15.557
rtibia 27.4865
rfoot -22.8441 -15.0117
rtoes 5.18469
lfemur 6.98357 3.86132 -13.9927
ltibia 9.0433
lfoot -15.0292 22.4153
ltoes 1.54849
68
root 5.21364 16.943 -6.41223 146.218 -86.562 210.887
lowerback 0.570494 -0.522542 2.34786
upperback 2.99864 -0.769519 0.360064
thorax 2.73348 -0.348309 -0.95995
lowerneck -2.95578 -1.09299 1.57945
upperneck -6.21698 -1.47288 3.09318
head -1.41103 -0.866717 0.699698
rclavicle 6.01052e-015 -5.39825e-015
rhumerus -29.8507 -11.6996 -84.6344
rradius 24.5374
rwrist 13.1732
rhand -18.6447 -5.49192
rfingers 7.12502
rthumb 7.6481 -35.3336
lclavicle 6.01052e-015 -5.39825e-015
lhumerus -29.3257 2.06197 88.4995
lradius 23.4429
lwrist 6.94127
lhand -21.7598 21.692
lfingers 7.12502
lthumb 4.64067 51.6212
rfemur -3.66164 5.97766 15.5617
rtibia 27.4765
rfoot -22.863 -14.9996
rtoes 5.2057
lfemur 7.04206 3.86843 -13.9915
ltibia 8.99007
lfoot -15.0354 22.4159
ltoes 1.58109
69
root 5.2083 16.9427 -6.41229 146.24 -86.5543 210.863
lowerback 0.549916 -0.515982 2.35709
upperback 2.99806 -0.761518 0.365294
thorax 2.74471 -0.344005 -0.959829
lowerneck -2.95198 -1.10233 1.56101
upperneck -6.15202 -1.48422 3.12
head -1.39076 -0.870678 0.710511
rclavicle 5.11366e-015 6.64686e-015
rhumerus -29.9524 -11.4383 -84.7201
rradius 24.6073
rwrist 12.8936
rhand -18.8543 -5.5361
rfingers 7.12502
rthumb 7.44576 -35.3851
lclavicle 5.11366e-015 6.64686e-015
lhumerus -29.4388 1.76882 88.6779
lradius 23.5551
lwrist 6.93549
lhand -22.0227 21.7541
lfingers 7.12502
lthumb 4.38688 51.6887
rfemur -3.63368 5.98293 15.5665
rtibia 27.4672
rfoot -22.8825 -14.9892
rtoes 5.2269
lfemur 7.09793 3.87324 -13.9901
ltibia 8.93984
lfoot -15.0421 22.4162
ltoes 1.61266
70
root 5.20319 16.9423 -6.41233 146.259 -86.5491 210.841
lowerback 0.529286 -0.509614 2.36485
upperback 2.9975 -0.753732 0.369542
thorax 2.75599 -0.339827 -0.959893
lowerneck -2.94839 -1.1114 1.54349
upperneck -6.08551 -1.49531 3.14587
head -1.36999 -0.874482 0.720853
rclavicle 5.8094e-015 -3.85145e-015
rhumerus -30.0414 -11.1899 -84.7959
rradius 24.6552
rwrist 12.6298
rhand -19.046 -5.57814
rfingers 7.12502
rthumb 7.26075 -35.4336
lclavicle 5.8094e-015 -3.85145e-015
lhumerus -29.5325 1.49202 88.8368
lradius 23.6442
lwrist 6.92904
lhand -22.2392 21.8057
lfingers 7.12502
lthumb 4.17782 51.7445
rfemur -3.60648 5.98736 15.57
rtibia 27.4586
rfoot -22.9021 -14.9803
rtoes 5.24682
lfemur 7.15064 3.87586 -13.9901
ltibia 8.89246
lfoot -15.0476 22.4171
ltoes 1.63919
71
root 5.19829 16.9419 -6.41236 146.261 -86.5457 210.836
lowerback 0.509197 -0.503455 2.37231
upperback 2.99702 -0.746198 0.373205
thorax 2.76705 -0.335775 -0.960382
lowerneck -2.94439 -1.1202 1.52695
upperneck -6.01808 -1.50612 3.17038
head -1.34903 -0.878128 0.730601
rclavicle 2.5943e-015 -1.98785e-016
rhumerus -30.1184 -10.9553 -84.8618
rradius 24.6819
rwrist 12.3825
rhand -19.2186 -5.61784
rfingers 7.12502
rthumb 7.09415 -35.4789
lclavicle 2.5943e-015 -1.98785e-016
lhumerus -29.6058 1.23227 88.9762
lradius 23.7073
lwrist 6.92445
lhand -22.4122 21.8431
lfingers 7.12502
lthumb 4.01072 51.7851
rfemur -3.5793 5.99076 15.5733
rtibia 27.4506
rfoot -22.9219 -14.9723
rtoes 5.26679
lfemur 7.20103 3.87635 -13.9899
ltibia 8.84783
lfoot -15.0527 22.4184
ltoes 1.66123
72
root 5.19366 16.9415 -6.41233 146.254 -86.5445 210.839
lowerback 0.489627 -0.497625 2.37937
upperback 2.99673 -0.739068 0.375933
thorax 2.77798 -0.331921 -0.961609
lowerneck -2.94059 -1.12869 1.51153
upperneck -5.9502 -1.51663 3.19361
head -1.32794 -0.881616 0.73975
rclavicle -6.2788e-015 -1.14301e-015
rhumerus -30.1828 -10.735 -84.9186
rradius 24.6877
rwrist 12.1511
rhand -19.3715 -5.65478
rfingers 7.12502
rthumb 6.94659 -35.5208
lclavicle -6.2788e-015 -1.14301e-015
lhumerus -29.6598 0.988943 89.0966
lradius 23.7474
lwrist 6.92307
lhand -22.5406 21.8697
lfingers 7.12502
lthumb 3.88675 51.814
rfemur -3.55283 5.99164 15.5754
rtibia 27.4434
rfoot -22.9414 -14.9639
rtoes 5.28729
lfemur 7.24892 3.87474 -13.9906
ltibia 8.80531
lfoot -15.0572 22.42
ltoes 1.68113
73
root 5.18924 16.9411 -6.41232 146.239 -86.5445 210.851
lowerback 0.470301 -0.491791 2.38577
upperback 2.99661 -0.731908 0.378036
thorax 2.78896 -0.328057 -0.963099
lowerneck -2.93752 -1.13684 1.4967
upperneck -5.88143 -1.52681 3.21586
head -1.30647 -0.884912 0.748476
rclavicle 8.91347e-015 3.09359e-015
rhumerus -30.2352 -10.5278 -84.9673
rradius 24.6742
rwrist 11.9341
rhand -19.5037 -5.68911
rfingers 7.12502
rthumb 6.81889 -35.5593
lclavicle 8.91347e-015 3.09359e-015
lhumerus -29.6951 0.76319 89.1977
lradius 23.7656
lwrist 6.92156
lhand -22.622 21.8894
lfingers 7.12502
lthumb 3.80812 51.8352
rfemur -3.52725 5.99221 15.5773
rtibia 27.437
rfoot -22.9606 -14.9571
rtoes 5.30477
lfemur 7.29421 3.87178 -13.9914
ltibia 8.7651
lfoot -15.0603 22.4222
ltoes 1.69596
74
root 5.18507 16.9408 -6.41229 146.227 -86.547 210.859
lowerback 0.451306 -0.486357 2.39082
upperback 2.99677 -0.72524 0.379129
thorax 2.80002 -0.324455 -0.964872
lowerneck -2.93452 -1.14463 1.48273
upperneck -5.81283 -1.53661 3.23682
head -1.28507 -0.888026 0.756658
rclavicle -3.06097e-015 2.45996e-015
rhumerus -30.2752 -10.3321 -85.0092
rradius 24.642
rwrist 11.7311
rhand -19.6148 -5.72185
rfingers 7.12502
rthumb 6.71166 -35.5955
lclavicle -3.06097e-015 2.45996e-015
lhumerus -29.7123 0.557153 89.2784
lradius 23.7638
lwrist 6.91144
lhand -22.6472 21.9135
lfingers 7.12502
lthumb 3.78383 51.8596
rfemur -3.50239 5.98994 15.5772
rtibia 27.4313
rfoot -22.9791 -14.9495
rtoes 5.32238
lfemur 7.33716 3.8669 -13.9938
ltibia 8.727
lfoot -15.0647 22.4238
ltoes 1.71248
